<?xml version="1.0" encoding="UTF-8"?>
<svg width="210px" height="178px" viewBox="0 0 210 178" version="1.1" xmlns="http://www.w3.org/2000/svg" xmlns:xlink="http://www.w3.org/1999/xlink">
    <!-- Generator: Sketch 53.2 (72643) - https://sketchapp.com -->
    <title>Camera</title>
    <desc>Created with Sketch.</desc>
    <g id="Page-1" stroke="none" stroke-width="1" fill="none" fill-rule="evenodd">
        <g id="Camera" transform="translate(0.000000, 0.000000)" fill="#D8D8D8">
            <path d="M75.4855928,-1.0658141e-14 L131.934592,-1.0658141e-14 C138.513346,-1.18666385e-14 144.32435,4.28674265 146.266237,10.5723674 L150.900352,25.5723674 C153.345666,33.4875168 148.911488,41.8863318 140.996339,44.3316457 C139.562214,44.7747056 138.069711,45 136.568706,45 L71.4335095,45 C63.1492382,45 56.4335095,38.2842712 56.4335095,30 C56.4335095,28.6788771 56.6080427,27.3635436 56.9525795,26.0881377 L61.0046628,11.0881377 C62.7722251,4.54497652 68.7078915,-4.084027e-15 75.4855928,-5.32907052e-15 Z" id="Rectangle"></path>
            <path d="M22,28 L188,28 C200.150264,28 210,37.8497355 210,50 L210,156 C210,168.150264 200.150264,178 188,178 L22,178 C9.8497355,178 1.48797825e-15,168.150264 0,156 L0,50 C-1.48797825e-15,37.8497355 9.8497355,28 22,28 Z M105.5,151 C131.733526,151 153,129.733526 153,103.5 C153,77.2664744 131.733526,56 105.5,56 C79.2664744,56 58,77.2664744 58,103.5 C58,129.733526 79.2664744,151 105.5,151 Z" id="Combined-Shape"></path>
            <circle id="Oval" cx="105.5" cy="103.5" r="29.5"></circle>
        </g>
    </g>
</svg>