<svg xmlns="http://www.w3.org/2000/svg" fill="url(#grad2)" width="69.8" height="69.8" viewBox="0 0 69.8 69.8">
<defs>
    <linearGradient id="grad2" x1="0%" y1="0%" x2="0%" y2="100%">
      <stop offset="0%" style="stop-color:#999;stop-opacity:.4" />
      <stop offset="100%" style="stop-color:#000;stop-opacity:.85" />
    </linearGradient>
</defs>
<path d="M33 66.1c-2.6-1.3-3.7-1.3-5.8.3l-1-.3c-.2-1 .2-2.1 1.1-3 1.4-1 3.6-1.3 5-.4 1 .8 1.3 2 .7 3.4zm9.4-4.6c-1.2-.6-3.2-.3-4.5.9a3.6 3.6 0 0 0-1 4.2c1.7-2.2 3.7-3.2 6.4-1.8.4-1.7.1-2.7-1-3.3zm-20.8 1.7c-1-.8-2.4-1-3.6-.6 1.5 1 3.1 1.7 4.8 2.4-.1-.7-.5-1.3-1.2-1.8zm29.5-3.5c-1.6-.2-2.7.7-3.6 1.9-.8 1-1.3 2.2-1 3.5.4 0 .7-.2 1-.3 1-1.3 2.2-2.3 4-2l1-.7c.3-1.3-.2-2.3-1.4-2.4zm-2-6c0-1.5-.4-2.5-1.8-2.9-1.6-.5-2.9.2-3.9 1.4s-1.5 2.5-1 4c.9-1 1.7-2 2.8-2.8 1.2-.8 2.6-.4 4 .4zm5-11.2c-.2-1.4-.5-2.5-1.8-3.2-1.1-.5-2.2-.2-3 .6-1.3 1.1-1.8 2.7-1.3 4.5 1.9-3.3 3.6-3.9 6-1.9zm-1.7 12.3c1.5-3.3 2.8-4.2 5.3-3.2 0-2-1-3.1-2.5-2.7-2.2.5-3.7 3.8-2.8 5.9zm8.9-14.4c-.1-.5-.1-1-.4-1.3-.5-.7-1.1-1.7-1.7-1.7-.8-.1-1.8.5-2.3 1.2-1 1.1-1 2.6-.6 4.1 1.5-3.4 2.6-3.9 5-2.3zM59.7 26c-1.3.2-1.9 1.8-1.5 4 1.4-2.3 2.3-2.4 4.3-.3-.3-2.4-1.5-3.9-2.8-3.7zM33.4 52.6c-1.6 1-2.3 3-1.6 4.7 1.4-4 2.9-5 6.4-4a3.6 3.6 0 0 0-4.8-.7zm-11.3.6c-1.5 1.1-2 3-1.1 4.5.3-3.5 2.5-4.8 6.3-3.8a3.8 3.8 0 0 0-5.2-.7zM43.8 42a3.3 3.3 0 0 0-4.3-.8c-1.7 1-2.7 3.5-1.8 5.2.6-3.8 2.5-5.2 6-4.4zm11.6-13c-1-1-2-1.4-3-.8-1.4.8-2 2.8-1.3 4.6.6-3.3 1.5-4.1 4.3-3.9zm5.2-12.5v-.3c-.6-.2-1.5-.6-1.9-.4-1 .9-.6 2-.3 3.5.1-2.4.5-2.9 2.2-2.8zm9.2 18.5A34.9 34.9 0 1 1 0 35a34.9 34.9 0 0 1 69.8 0zm-5.6 13.8c0-.5-.3-1.2-.4-1.7-1 2.3-1.2 5-4.8 5.3.6 1 1 2 1.6 2h.3c1.3-1.7 2.4-3.6 3.3-5.6zm2.4-7c.3-1.3.5-2.7.6-4-.1-.8-.4-1.6-.8-2.2-.4 2 .1 4.6-3.1 5.2l.6 1.5c.7.9 1.5 1 2.3.1l.4-.7zM35 67.3a32.3 32.3 0 0 0 18.9-6.1l.2-.4c.6-1 1.2-2.2 2.2-2.6 2.5-1.2 3-3 2.5-5.3-.4-2.4 0-4.5 1.7-6.2 2-2 2.4-4.2 1.8-6.8-.4-2 .2-3.7 1.5-5.1.8-.8 1.7-1.5 2.6-2.1l.9-.7c-.2-2.2-.6-4.2-1.2-6.2-.6-.4-1.1 0-1.8 1l-.1-.1c0-1.2-.5-2.9.9-3.2h.3a32.5 32.5 0 1 0-55.4 32c0-1.1.5-2 1.5-2.6 1.6-1 3.3-.8 5.1 1-1.6-.7-3-1-4.3-.2-1 .5-1.5 1.3-1.8 2.4a32.6 32.6 0 0 0 7.6 6.4c4.9 3 10.7 4.8 16.9 4.8z"/></svg>