<?xml version="1.0" encoding="UTF-8"?>
<svg width="39px" height="39px" viewBox="0 0 39 39" version="1.1" xmlns="http://www.w3.org/2000/svg" xmlns:xlink="http://www.w3.org/1999/xlink">
    <!-- Generator: Sketch 52.5 (67469) - http://www.bohemiancoding.com/sketch -->
    <title>Plus button</title>
    <desc>Created with Sketch.</desc>
    <g id="Page-1" stroke="none" stroke-width="1" fill="none" fill-rule="evenodd">
        <g id="Plus-button">
            <g id="Group">
                <path d="M21.326923,17.673077 L29.173077,17.673077 C30.1820587,17.673077 31,18.4910183 31,19.5 C31,20.5089817 30.1820587,21.326923 29.173077,21.326923 L21.326923,21.326923 L21.326923,29.173077 C21.326923,30.1820587 20.5089817,31 19.5,31 C18.4910183,31 17.673077,30.1820587 17.673077,29.173077 L17.673077,21.326923 L9.826923,21.326923 C8.81794129,21.326923 8,20.5089817 8,19.5 C8,18.4910183 8.81794129,17.673077 9.826923,17.673077 L17.673077,17.673077 L17.673077,9.826923 C17.673077,8.81794129 18.4910183,8 19.5,8 C20.5089817,8 21.326923,8.81794129 21.326923,9.826923 L21.326923,17.673077 Z" id="Plus" fill="#6c757d"></path>
                <circle id="Oval" stroke="#6c757d" stroke-width="3" cx="19.5" cy="19.5" r="18"></circle>
            </g>
        </g>
    </g>
</svg>